<svg width="32" height="32" viewBox="0 0 32 32" fill="none" xmlns="http://www.w3.org/2000/svg">
  <rect width="32" height="32" rx="9" fill="url(#iconGrad)" />
  <circle cx="16" cy="10" r="3.2" fill="white" />
  <path d="M7.5 16.5C7.5 16.5 11.5 14.5 16 14.5C20.5 14.5 24.5 16.5 24.5 16.5C24.5 16.5 23 19 20.5 19C18 19 17.5 20.5 17.5 23.5C17.5 25.5 17 26.5 16 26.5C15 26.5 14.5 25.5 14.5 23.5C14.5 20.5 14 19 11.5 19C9 19 7.5 16.5 7.5 16.5Z" fill="white" />
  <path d="M16 2.5L17.3 5.3L20.3 5.7L18.1 7.8L18.6 10.8L16 9.4L13.4 10.8L13.9 7.8L11.7 5.7L14.7 5.3L16 2.5Z" fill="#fbbf24" />
  <defs>
    <linearGradient id="iconGrad" x1="0" y1="0" x2="32" y2="32" gradientUnits="userSpaceOnUse">
      <stop offset="0%" stop-color="#4f46e5" />
      <stop offset="100%" stop-color="#3b82f6" />
    </linearGradient>
  </defs>
</svg>
